# xmcd
#
# Track frame offsets:
# 150
# 7065
# 28087
# 42217
# 57108
# 86293
# 110453
# 123394
# 148069
# 155763
# 204525
# 221481
# 243871
# 255703
# 280391
# 311385
# 327859
#
# Disc length: 4596 seconds
#
#
# Revision: 1
# Processed by: cddbd v1.5.2PL0 Copyright (c) Steve Scherf et al.
# Submitted via: FreeRIP 2.96 
#
DISCID=f011f211
DTITLE=hilsong - Hilsong united
DYEAR=2005
DGENRE=rock
TTITLE0=Introduccion
TTITLE1=Es tiempo
TTITLE2=Tomalo
TTITLE3=Su hijo dio
TTITLE4=Desde mi interior
TTITLE5=Me viniste a rescatar
TTITLE6=repeticion
TTITLE7=Solo Cristo
TTITLE8=selah
TTITLE9=Fuego de Dios
TTITLE10=La revolucion
TTITLE11=Venga tu reino
TTITLE12=Nadie hay como Tu
TTITLE13=Soberano
TTITLE14=Aqui estoy
TTITLE15=selah2
TTITLE16=Aleluya
EXTD=
EXTT0=
EXTT1=
EXTT2=
EXTT3=
EXTT4=
EXTT5=
EXTT6=
EXTT7=
EXTT8=
EXTT9=
EXTT10=
EXTT11=
EXTT12=
EXTT13=
EXTT14=
EXTT15=
EXTT16=
PLAYORDER=
